<svg id="Calque_1" data-name="Calque 1" xmlns="http://www.w3.org/2000/svg" viewBox="0 0 223.24 161.15">
  <defs>
    <style>.cls-1{fill:#cceeff;}.cls-2{fill:#ffffff;}</style>
  </defs>
  <title>logo temp</title>
  <path class="cls-1" d="M55.89,38a4.17,4.17,0,0,1-3.24-1.51,7.54,7.54,0,0,0,3.24-6.19c0-2.52-1.44-4.82-5.26-4.82s-6.7,2.3-6.7,6.26c0,11.31,16.2,12,16.2,28,0,10.15-7.49,16.71-19.08,16.71-5.76,0-15.91-1.22-15.91-11.59,0-6.77,5-10.37,10.58-10.37,3.24,0,5.26,1.08,5.83,3.67-5.83.5-8.42,3-8.42,7.92S36.88,73,40.27,73c5.69,0,7.92-5,7.92-10.3,0-13.54-15.55-16.49-15.55-27.22,0-7.56,8.57-13.39,17.14-13.39,3.82,0,12.1.58,12.1,8.64C61.87,34.85,59.64,38,55.89,38Z" transform="translate(-23.38 -22.1)"/>
  <path class="cls-1" d="M90.88,50a2.79,2.79,0,0,0,2.09.65c3.38,0,4.9-2.45,7.56-3.53l0.29,1.51a20,20,0,0,1-10.15,6.34c-1.37,14.47-9.22,21.6-16.42,21.6-7.7,0-11-3.24-11-11.81,0-17.71,9-25.35,18.94-25.35C89,39.39,90.74,44.71,90.88,50Zm-5.54,5.69a2.93,2.93,0,0,1-3-3.24,5.42,5.42,0,0,1,3.17-5c-0.22-2.38-1-3.74-3-3.74-6.77,0-9.65,14.69-9.65,20.45,0,4.32,2,5.47,4.82,5.47C82,69.56,84.48,62.64,85.34,55.66Z" transform="translate(-23.38 -22.1)"/>
  <path class="cls-1" d="M109.53,40.11l-0.79,3.6c2.59-2,5.47-3.6,8.5-3.6,3.24,0,5.18,1.87,5.18,4.61a5.51,5.51,0,0,1-5.4,5.62c-4,0-2-4.75-4.18-4.75s-3.31.79-5,2.3l-6,28.23H91.53l7.63-36h10.37Z" transform="translate(-23.38 -22.1)"/>
  <path class="cls-1" d="M132.79,64.59a10.65,10.65,0,0,0-.36,2.52c0,1.51.58,2.59,2.52,2.59a5.77,5.77,0,0,0,1.87-.22c-2,6.19-5.18,6.62-7.63,6.62-5,0-7.2-3.31-7.2-7.78a17.59,17.59,0,0,1,.43-3.74L127,43h-2.38l0.58-2.88h2.38l2.16-9.94,10.66-1.44s-1.08,4.9-2.45,11.38h4.32L141.71,43h-4.32Z" transform="translate(-23.38 -22.1)"/>
  <path class="cls-1" d="M204.64,64.59a11.31,11.31,0,0,0-.36,2.66c0,1.66.65,3,3,3,2.88,0,5.9-4.25,7.56-7.34h3.38c-3.31,3.89-9.79,13.25-15.41,13.25s-8.93-2.45-8.93-7.85a17.5,17.5,0,0,1,.43-3.67l2.74-13a8.8,8.8,0,0,0,.22-1.87c0-2.59-1.37-4.25-3.31-4.25a7.34,7.34,0,0,0-4.18,1.3,10.15,10.15,0,0,1,.36,2.52,10.7,10.7,0,0,1-.14,1.51l-5.33,25.27H174.19l5.18-24.48a8.8,8.8,0,0,0,.22-1.87c0-2.59-1.37-4.25-3.31-4.25A7.06,7.06,0,0,0,171.88,47l-6.19,29.09H155.32l7.63-36h10.37l-0.79,3.82c2.88-2.09,6.19-3.82,9.29-3.82,2.66,0,5.54,1.94,7.13,4.75,3.17-2.52,7-4.75,10.51-4.75,4,0,8.28,4.18,8.28,9.07a12.8,12.8,0,0,1-.14,1.66Z" transform="translate(-23.38 -22.1)"/>
  <path class="cls-1" d="M227.1,40.11l-5.26,24.48a9,9,0,0,0-.36,2.3c0,1.58.79,2.66,3.6,2.66,1.66,0,3.6-1.3,5.47-2.88l5.62-26.57h10.44l-8.78,41.76c-2.16,10.3-8.35,12.24-13.1,12.24-4.39,0-8.5-3.1-8.5-7.78,0-6.7,5.62-8.79,12.46-10.8l1.08-5c-3.24,3-6.91,5.54-9.79,5.54-5.62,0-8.93-2.45-8.93-7.85a17.47,17.47,0,0,1,.43-3.67l5-24.48H227.1Zm-4,47.6c1.44,0,3.38-1.37,4.25-5.62l0.86-4.25c-4.54,1.51-8,3.6-8,7.49A2.91,2.91,0,0,0,223.07,87.7Z" transform="translate(-23.38 -22.1)"/>
  <path class="cls-2" d="M72.74,109.49L57,182.91H40.6l16.19-75.35C44,107.56,34,111.2,34,130.47c0,5.81,1.48,6.73,1.6,7.75-7.87,0-12.2-2.85-12.2-11.06,0-15.16,10.72-29.64,38.87-29.64,4.67,0,18.13,1.94,29.3,1.94,5.24,0,10-.46,13.11-1.71-1.6,4.79-1.71,14.71-10.83,14.71C87.79,112.46,80.38,110.86,72.74,109.49Z" transform="translate(-23.38 -22.1)"/>
  <path class="cls-2" d="M102.38,125.91l-1.25,5.7c4.1-3.19,8.66-5.7,13.45-5.7,5.13,0,8.21,3,8.21,7.3,0,4-3,8.89-8.55,8.89-6.38,0-3.19-7.52-6.61-7.52s-5.24,1.25-7.87,3.65L90.3,182.91H73.88l12.08-57h16.42Z" transform="translate(-23.38 -22.1)"/>
  <path class="cls-2" d="M147.18,125.91L139,164.67a21.48,21.48,0,0,0-.46,3.53c0,2.51,1.14,4.33,5.7,4.33s10.49-6.38,15-10h3.88c-5.24,5.24-18.13,20.41-27,20.41s-14.25-3.88-14.25-12.43a28.54,28.54,0,0,1,.68-5.81l8.21-38.76h16.42Zm-5.24-24.17a9.15,9.15,0,0,1,9.12,9.12,9,9,0,0,1-9.12,9,9,9,0,0,1-9-9A9,9,0,0,1,141.94,101.74Z" transform="translate(-23.38 -22.1)"/>
  <path class="cls-2" d="M182.29,103.11L176.82,129a16.61,16.61,0,0,1,9.8-3.31c10.94,0,14.48,7.75,14.48,14.48,0,17.9-9.8,43.09-30.21,43.09-11.29,0-18.81-3.19-18.81-13a26.53,26.53,0,0,1,.68-5.59l12.65-59.28Zm-0.46,29.41c-1.14,0-5.13.8-6.16,1.6l-6.5,30.55a34.13,34.13,0,0,0-.91,6.27c0,3.42,1.6,4.22,5,4.22,9.35,0,15-26,15-34.2C188.34,134.12,184.69,132.52,181.84,132.52Z" transform="translate(-23.38 -22.1)"/>
  <path class="cls-2" d="M202.47,164.78c0-14.48,6.16-39.9,26.9-39.9,9.35,0,14.59,3.88,14.59,11.86C244,150.65,229,158.63,218.2,160a41,41,0,0,0-.34,4.9c0,7.52,3.76,9.8,8.21,9.8,5.36,0,9.92-3.08,14.59-7.3,0,12.31-9.92,15.5-21.32,15.5C208.4,182.91,202.47,174.59,202.47,164.78Zm30.67-33.86c-6.38,0-11.63,12.88-14,23.6,10.49-.11,17.9-9.12,18-17.21C237.13,134.92,236.56,130.92,233.14,130.92Z" transform="translate(-23.38 -22.1)"/>
</svg>
